<svg width="726" height="96" viewBox="0 0 726 96" fill="none" xmlns="http://www.w3.org/2000/svg">
<path d="M11.2511 36L0.259125 2.4H8.32313L17.8751 32.16H13.8431L23.8271 2.4H31.0271L40.6271 32.16H36.7391L46.5311 2.4H53.9711L42.9791 36H34.6271L26.1311 9.888H28.3391L19.6031 36H11.2511ZM68.6783 36.384C65.7343 36.384 63.1423 35.808 60.9023 34.656C58.6943 33.504 56.9823 31.936 55.7663 29.952C54.5503 27.936 53.9423 25.648 53.9423 23.088C53.9423 20.496 54.5343 18.208 55.7183 16.224C56.9343 14.208 58.5823 12.64 60.6623 11.52C62.7423 10.368 65.0943 9.792 67.7183 9.792C70.2463 9.792 72.5183 10.336 74.5343 11.424C76.5823 12.48 78.1983 14.016 79.3823 16.032C80.5663 18.016 81.1583 20.4 81.1583 23.184C81.1583 23.472 81.1423 23.808 81.1103 24.192C81.0783 24.544 81.0463 24.88 81.0143 25.2H60.0383V20.832H77.0782L74.1983 22.128C74.1983 20.784 73.9263 19.616 73.3823 18.624C72.8383 17.632 72.0863 16.864 71.1263 16.32C70.1663 15.744 69.0463 15.456 67.7663 15.456C66.4863 15.456 65.3503 15.744 64.3583 16.32C63.3983 16.864 62.6463 17.648 62.1023 18.672C61.5583 19.664 61.2863 20.848 61.2863 22.224V23.376C61.2863 24.784 61.5903 26.032 62.1983 27.12C62.8383 28.176 63.7183 28.992 64.8383 29.568C65.9903 30.112 67.3343 30.384 68.8703 30.384C70.2463 30.384 71.4463 30.176 72.4703 29.76C73.5263 29.344 74.4863 28.72 75.3503 27.888L79.3343 32.208C78.1503 33.552 76.6623 34.592 74.8703 35.328C73.0783 36.032 71.0143 36.384 68.6783 36.384ZM110.633 36.384C108.489 36.384 106.569 35.968 104.873 35.136C103.209 34.304 101.913 33.04 100.985 31.344C100.057 29.616 99.5933 27.424 99.5933 24.768V10.176H107.081V23.664C107.081 25.808 107.529 27.392 108.425 28.416C109.353 29.408 110.649 29.904 112.313 29.904C113.465 29.904 114.489 29.664 115.385 29.184C116.281 28.672 116.985 27.904 117.497 26.88C118.009 25.824 118.265 24.512 118.265 22.944V10.176H125.753V36H118.649V28.896L119.945 30.96C119.081 32.752 117.801 34.112 116.105 35.04C114.441 35.936 112.617 36.384 110.633 36.384ZM148.386 9.792C150.434 9.792 152.258 10.208 153.858 11.04C155.49 11.84 156.77 13.088 157.698 14.784C158.626 16.448 159.09 18.592 159.09 21.216V36H151.602V22.368C151.602 20.288 151.138 18.752 150.21 17.76C149.314 16.768 148.034 16.272 146.37 16.272C145.186 16.272 144.114 16.528 143.154 17.04C142.226 17.52 141.49 18.272 140.946 19.296C140.434 20.32 140.178 21.632 140.178 23.232V36H132.69V10.176H139.842V17.328L138.498 15.168C139.426 13.44 140.754 12.112 142.482 11.184C144.21 10.256 146.178 9.792 148.386 9.792ZM177.153 36.384C174.721 36.384 172.529 35.84 170.577 34.752C168.625 33.632 167.073 32.08 165.921 30.096C164.801 28.112 164.241 25.776 164.241 23.088C164.241 20.368 164.801 18.016 165.921 16.032C167.073 14.048 168.625 12.512 170.577 11.424C172.529 10.336 174.721 9.792 177.153 9.792C179.329 9.792 181.233 10.272 182.865 11.232C184.497 12.192 185.761 13.648 186.657 15.6C187.553 17.552 188.001 20.048 188.001 23.088C188.001 26.096 187.569 28.592 186.705 30.576C185.841 32.528 184.593 33.984 182.961 34.944C181.361 35.904 179.425 36.384 177.153 36.384ZM178.449 30.24C179.665 30.24 180.769 29.952 181.761 29.376C182.753 28.8 183.537 27.984 184.113 26.928C184.721 25.84 185.025 24.56 185.025 23.088C185.025 21.584 184.721 20.304 184.113 19.248C183.537 18.192 182.753 17.376 181.761 16.8C180.769 16.224 179.665 15.936 178.449 15.936C177.201 15.936 176.081 16.224 175.089 16.8C174.097 17.376 173.297 18.192 172.689 19.248C172.113 20.304 171.825 21.584 171.825 23.088C171.825 24.56 172.113 25.84 172.689 26.928C173.297 27.984 174.097 28.8 175.089 29.376C176.081 29.952 177.201 30.24 178.449 30.24ZM185.217 36V30.72L185.361 23.04L184.881 15.408V0.383998H192.369V36H185.217ZM212.116 36.384C209.172 36.384 206.58 35.808 204.34 34.656C202.132 33.504 200.42 31.936 199.204 29.952C197.988 27.936 197.38 25.648 197.38 23.088C197.38 20.496 197.972 18.208 199.156 16.224C200.372 14.208 202.02 12.64 204.1 11.52C206.18 10.368 208.532 9.792 211.156 9.792C213.684 9.792 215.956 10.336 217.972 11.424C220.02 12.48 221.636 14.016 222.82 16.032C224.004 18.016 224.596 20.4 224.596 23.184C224.596 23.472 224.58 23.808 224.548 24.192C224.516 24.544 224.484 24.88 224.452 25.2H203.476V20.832H220.516L217.636 22.128C217.636 20.784 217.364 19.616 216.82 18.624C216.276 17.632 215.524 16.864 214.564 16.32C213.604 15.744 212.484 15.456 211.204 15.456C209.924 15.456 208.788 15.744 207.796 16.32C206.836 16.864 206.084 17.648 205.54 18.672C204.996 19.664 204.724 20.848 204.724 22.224V23.376C204.724 24.784 205.028 26.032 205.636 27.12C206.276 28.176 207.156 28.992 208.276 29.568C209.428 30.112 210.772 30.384 212.308 30.384C213.684 30.384 214.884 30.176 215.908 29.76C216.964 29.344 217.924 28.72 218.788 27.888L222.772 32.208C221.588 33.552 220.1 34.592 218.308 35.328C216.516 36.032 214.452 36.384 212.116 36.384ZM229.581 36V10.176H236.733V17.472L235.725 15.36C236.493 13.536 237.725 12.16 239.421 11.232C241.117 10.272 243.181 9.792 245.613 9.792V16.704C245.293 16.672 245.005 16.656 244.749 16.656C244.493 16.624 244.221 16.608 243.933 16.608C241.885 16.608 240.221 17.2 238.941 18.384C237.693 19.536 237.069 21.344 237.069 23.808V36H229.581ZM258.941 36.384C256.733 36.384 254.605 36.128 252.557 35.616C250.541 35.072 248.941 34.4 247.757 33.6L250.253 28.224C251.437 28.96 252.829 29.568 254.429 30.048C256.061 30.496 257.661 30.72 259.229 30.72C260.957 30.72 262.173 30.512 262.877 30.096C263.613 29.68 263.981 29.104 263.981 28.368C263.981 27.76 263.693 27.312 263.117 27.024C262.573 26.704 261.837 26.464 260.909 26.304C259.981 26.144 258.957 25.984 257.837 25.824C256.749 25.664 255.645 25.456 254.525 25.2C253.405 24.912 252.381 24.496 251.453 23.952C250.525 23.408 249.773 22.672 249.197 21.744C248.653 20.816 248.381 19.616 248.381 18.144C248.381 16.512 248.845 15.072 249.773 13.824C250.733 12.576 252.109 11.6 253.901 10.896C255.693 10.16 257.837 9.792 260.333 9.792C262.093 9.792 263.885 9.984 265.709 10.368C267.533 10.752 269.053 11.312 270.269 12.048L267.773 17.376C266.525 16.64 265.261 16.144 263.981 15.888C262.733 15.6 261.517 15.456 260.333 15.456C258.669 15.456 257.453 15.68 256.685 16.128C255.917 16.576 255.533 17.152 255.533 17.856C255.533 18.496 255.805 18.976 256.349 19.296C256.925 19.616 257.677 19.872 258.605 20.064C259.533 20.256 260.541 20.432 261.629 20.592C262.749 20.72 263.869 20.928 264.989 21.216C266.109 21.504 267.117 21.92 268.013 22.464C268.941 22.976 269.693 23.696 270.269 24.624C270.845 25.52 271.133 26.704 271.133 28.176C271.133 29.776 270.653 31.2 269.693 32.448C268.733 33.664 267.341 34.624 265.517 35.328C263.725 36.032 261.533 36.384 258.941 36.384ZM286.313 36.384C283.273 36.384 280.905 35.616 279.209 34.08C277.513 32.512 276.665 30.192 276.665 27.12V4.464H284.153V27.024C284.153 28.112 284.441 28.96 285.017 29.568C285.593 30.144 286.377 30.432 287.369 30.432C288.553 30.432 289.561 30.112 290.393 29.472L292.409 34.752C291.641 35.296 290.713 35.712 289.625 36C288.569 36.256 287.465 36.384 286.313 36.384ZM272.681 16.512V10.752H290.585V16.512H272.681ZM312.452 36V30.96L311.972 29.856V20.832C311.972 19.232 311.476 17.984 310.484 17.088C309.524 16.192 308.036 15.744 306.02 15.744C304.644 15.744 303.284 15.968 301.94 16.416C300.628 16.832 299.508 17.408 298.58 18.144L295.892 12.912C297.3 11.92 298.996 11.152 300.98 10.608C302.964 10.064 304.98 9.792 307.028 9.792C310.964 9.792 314.02 10.72 316.196 12.576C318.372 14.432 319.46 17.328 319.46 21.264V36H312.452ZM304.58 36.384C302.564 36.384 300.836 36.048 299.396 35.376C297.956 34.672 296.852 33.728 296.084 32.544C295.316 31.36 294.932 30.032 294.932 28.56C294.932 27.024 295.3 25.68 296.036 24.528C296.804 23.376 298.004 22.48 299.636 21.84C301.268 21.168 303.396 20.832 306.02 20.832H312.884V25.2H306.836C305.076 25.2 303.86 25.488 303.188 26.064C302.548 26.64 302.228 27.36 302.228 28.224C302.228 29.184 302.596 29.952 303.332 30.528C304.1 31.072 305.14 31.344 306.452 31.344C307.7 31.344 308.82 31.056 309.812 30.48C310.804 29.872 311.524 28.992 311.972 27.84L313.124 31.296C312.58 32.96 311.588 34.224 310.148 35.088C308.708 35.952 306.852 36.384 304.58 36.384ZM341.933 9.792C343.981 9.792 345.805 10.208 347.405 11.04C349.037 11.84 350.317 13.088 351.245 14.784C352.173 16.448 352.637 18.592 352.637 21.216V36H345.149V22.368C345.149 20.288 344.685 18.752 343.757 17.76C342.861 16.768 341.581 16.272 339.917 16.272C338.733 16.272 337.661 16.528 336.701 17.04C335.773 17.52 335.037 18.272 334.493 19.296C333.981 20.32 333.725 21.632 333.725 23.232V36H326.237V10.176H333.389V17.328L332.045 15.168C332.973 13.44 334.301 12.112 336.029 11.184C337.757 10.256 339.725 9.792 341.933 9.792ZM370.7 36.384C368.268 36.384 366.076 35.84 364.124 34.752C362.172 33.632 360.62 32.08 359.468 30.096C358.348 28.112 357.788 25.776 357.788 23.088C357.788 20.368 358.348 18.016 359.468 16.032C360.62 14.048 362.172 12.512 364.124 11.424C366.076 10.336 368.268 9.792 370.7 9.792C372.876 9.792 374.78 10.272 376.412 11.232C378.044 12.192 379.308 13.648 380.204 15.6C381.1 17.552 381.548 20.048 381.548 23.088C381.548 26.096 381.116 28.592 380.252 30.576C379.388 32.528 378.14 33.984 376.508 34.944C374.908 35.904 372.972 36.384 370.7 36.384ZM371.996 30.24C373.212 30.24 374.316 29.952 375.308 29.376C376.3 28.8 377.084 27.984 377.66 26.928C378.268 25.84 378.572 24.56 378.572 23.088C378.572 21.584 378.268 20.304 377.66 19.248C377.084 18.192 376.3 17.376 375.308 16.8C374.316 16.224 373.212 15.936 371.996 15.936C370.748 15.936 369.628 16.224 368.636 16.8C367.644 17.376 366.844 18.192 366.236 19.248C365.66 20.304 365.372 21.584 365.372 23.088C365.372 24.56 365.66 25.84 366.236 26.928C366.844 27.984 367.644 28.8 368.636 29.376C369.628 29.952 370.748 30.24 371.996 30.24ZM378.764 36V30.72L378.908 23.04L378.428 15.408V0.383998H385.916V36H378.764ZM417 36.384C413.96 36.384 411.592 35.616 409.896 34.08C408.2 32.512 407.352 30.192 407.352 27.12V4.464H414.84V27.024C414.84 28.112 415.128 28.96 415.704 29.568C416.28 30.144 417.064 30.432 418.056 30.432C419.24 30.432 420.248 30.112 421.08 29.472L423.096 34.752C422.328 35.296 421.4 35.712 420.312 36C419.256 36.256 418.152 36.384 417 36.384ZM403.368 16.512V10.752H421.272V16.512H403.368ZM442.996 9.792C445.044 9.792 446.868 10.208 448.468 11.04C450.1 11.84 451.38 13.088 452.308 14.784C453.236 16.448 453.7 18.592 453.7 21.216V36H446.212V22.368C446.212 20.288 445.748 18.752 444.82 17.76C443.924 16.768 442.644 16.272 440.98 16.272C439.796 16.272 438.724 16.528 437.764 17.04C436.836 17.52 436.1 18.272 435.556 19.296C435.044 20.32 434.788 21.632 434.788 23.232V36H427.3V0.383998H434.788V17.328L433.108 15.168C434.036 13.44 435.364 12.112 437.092 11.184C438.82 10.256 440.788 9.792 442.996 9.792ZM473.491 36.384C470.547 36.384 467.955 35.808 465.715 34.656C463.507 33.504 461.795 31.936 460.579 29.952C459.363 27.936 458.755 25.648 458.755 23.088C458.755 20.496 459.347 18.208 460.531 16.224C461.747 14.208 463.395 12.64 465.475 11.52C467.555 10.368 469.907 9.792 472.531 9.792C475.059 9.792 477.331 10.336 479.347 11.424C481.395 12.48 483.011 14.016 484.195 16.032C485.379 18.016 485.971 20.4 485.971 23.184C485.971 23.472 485.955 23.808 485.923 24.192C485.891 24.544 485.859 24.88 485.827 25.2H464.851V20.832H481.891L479.011 22.128C479.011 20.784 478.739 19.616 478.195 18.624C477.651 17.632 476.899 16.864 475.939 16.32C474.979 15.744 473.859 15.456 472.579 15.456C471.299 15.456 470.163 15.744 469.171 16.32C468.211 16.864 467.459 17.648 466.915 18.672C466.371 19.664 466.099 20.848 466.099 22.224V23.376C466.099 24.784 466.403 26.032 467.011 27.12C467.651 28.176 468.531 28.992 469.651 29.568C470.803 30.112 472.147 30.384 473.683 30.384C475.059 30.384 476.259 30.176 477.283 29.76C478.339 29.344 479.299 28.72 480.163 27.888L484.147 32.208C482.963 33.552 481.475 34.592 479.683 35.328C477.891 36.032 475.827 36.384 473.491 36.384ZM519.814 36.384C517.638 36.384 515.734 35.904 514.102 34.944C512.47 33.984 511.19 32.528 510.262 30.576C509.366 28.592 508.918 26.096 508.918 23.088C508.918 20.048 509.35 17.552 510.214 15.6C511.078 13.648 512.326 12.192 513.958 11.232C515.59 10.272 517.542 9.792 519.814 9.792C522.246 9.792 524.422 10.352 526.342 11.472C528.294 12.56 529.83 14.096 530.95 16.08C532.102 18.064 532.678 20.4 532.678 23.088C532.678 25.808 532.102 28.16 530.95 30.144C529.83 32.128 528.294 33.664 526.342 34.752C524.422 35.84 522.246 36.384 519.814 36.384ZM504.55 45.312V10.176H511.702V15.456L511.558 23.136L512.038 30.768V45.312H504.55ZM518.518 30.24C519.766 30.24 520.87 29.952 521.83 29.376C522.822 28.8 523.606 27.984 524.182 26.928C524.79 25.84 525.094 24.56 525.094 23.088C525.094 21.584 524.79 20.304 524.182 19.248C523.606 18.192 522.822 17.376 521.83 16.8C520.87 16.224 519.766 15.936 518.518 15.936C517.27 15.936 516.15 16.224 515.158 16.8C514.166 17.376 513.382 18.192 512.806 19.248C512.23 20.304 511.942 21.584 511.942 23.088C511.942 24.56 512.23 25.84 512.806 26.928C513.382 27.984 514.166 28.8 515.158 29.376C516.15 29.952 517.27 30.24 518.518 30.24ZM549.978 36.384C547.226 36.384 544.778 35.808 542.634 34.656C540.522 33.504 538.842 31.936 537.594 29.952C536.378 27.936 535.77 25.648 535.77 23.088C535.77 20.496 536.378 18.208 537.594 16.224C538.842 14.208 540.522 12.64 542.634 11.52C544.778 10.368 547.226 9.792 549.978 9.792C552.698 9.792 555.13 10.368 557.274 11.52C559.418 12.64 561.098 14.192 562.314 16.176C563.53 18.16 564.138 20.464 564.138 23.088C564.138 25.648 563.53 27.936 562.314 29.952C561.098 31.936 559.418 33.504 557.274 34.656C555.13 35.808 552.698 36.384 549.978 36.384ZM549.978 30.24C551.226 30.24 552.346 29.952 553.338 29.376C554.33 28.8 555.114 27.984 555.69 26.928C556.266 25.84 556.554 24.56 556.554 23.088C556.554 21.584 556.266 20.304 555.69 19.248C555.114 18.192 554.33 17.376 553.338 16.8C552.346 16.224 551.226 15.936 549.978 15.936C548.73 15.936 547.61 16.224 546.618 16.8C545.626 17.376 544.826 18.192 544.218 19.248C543.642 20.304 543.354 21.584 543.354 23.088C543.354 24.56 543.642 25.84 544.218 26.928C544.826 27.984 545.626 28.8 546.618 29.376C547.61 29.952 548.73 30.24 549.978 30.24ZM574.344 36L565.032 10.176H572.088L579.816 32.4H576.456L584.52 10.176H590.856L598.68 32.4H595.32L603.288 10.176H609.912L600.552 36H593.304L586.44 16.944H588.648L581.544 36H574.344ZM625.506 36.384C622.562 36.384 619.97 35.808 617.73 34.656C615.522 33.504 613.81 31.936 612.594 29.952C611.378 27.936 610.77 25.648 610.77 23.088C610.77 20.496 611.362 18.208 612.546 16.224C613.762 14.208 615.41 12.64 617.49 11.52C619.57 10.368 621.922 9.792 624.546 9.792C627.074 9.792 629.346 10.336 631.362 11.424C633.41 12.48 635.026 14.016 636.21 16.032C637.394 18.016 637.986 20.4 637.986 23.184C637.986 23.472 637.97 23.808 637.938 24.192C637.906 24.544 637.874 24.88 637.842 25.2H616.866V20.832H633.906L631.026 22.128C631.026 20.784 630.754 19.616 630.21 18.624C629.666 17.632 628.914 16.864 627.954 16.32C626.994 15.744 625.874 15.456 624.594 15.456C623.314 15.456 622.178 15.744 621.186 16.32C620.226 16.864 619.474 17.648 618.93 18.672C618.386 19.664 618.114 20.848 618.114 22.224V23.376C618.114 24.784 618.418 26.032 619.026 27.12C619.666 28.176 620.546 28.992 621.666 29.568C622.818 30.112 624.162 30.384 625.698 30.384C627.074 30.384 628.274 30.176 629.298 29.76C630.354 29.344 631.314 28.72 632.178 27.888L636.162 32.208C634.978 33.552 633.49 34.592 631.698 35.328C629.906 36.032 627.842 36.384 625.506 36.384ZM642.972 36V10.176H650.124V17.472L649.116 15.36C649.884 13.536 651.116 12.16 652.812 11.232C654.508 10.272 656.572 9.792 659.004 9.792V16.704C658.684 16.672 658.396 16.656 658.14 16.656C657.884 16.624 657.612 16.608 657.324 16.608C655.276 16.608 653.612 17.2 652.332 18.384C651.084 19.536 650.46 21.344 650.46 23.808V36H642.972ZM689.525 36.384C686.773 36.384 684.325 35.808 682.181 34.656C680.069 33.504 678.389 31.936 677.141 29.952C675.925 27.936 675.317 25.648 675.317 23.088C675.317 20.496 675.925 18.208 677.141 16.224C678.389 14.208 680.069 12.64 682.181 11.52C684.325 10.368 686.773 9.792 689.525 9.792C692.245 9.792 694.677 10.368 696.821 11.52C698.965 12.64 700.645 14.192 701.861 16.176C703.077 18.16 703.685 20.464 703.685 23.088C703.685 25.648 703.077 27.936 701.861 29.952C700.645 31.936 698.965 33.504 696.821 34.656C694.677 35.808 692.245 36.384 689.525 36.384ZM689.525 30.24C690.773 30.24 691.893 29.952 692.885 29.376C693.877 28.8 694.661 27.984 695.237 26.928C695.813 25.84 696.101 24.56 696.101 23.088C696.101 21.584 695.813 20.304 695.237 19.248C694.661 18.192 693.877 17.376 692.885 16.8C691.893 16.224 690.773 15.936 689.525 15.936C688.277 15.936 687.157 16.224 686.165 16.8C685.173 17.376 684.373 18.192 683.765 19.248C683.189 20.304 682.901 21.584 682.901 23.088C682.901 24.56 683.189 25.84 683.765 26.928C684.373 27.984 685.173 28.8 686.165 29.376C687.157 29.952 688.277 30.24 689.525 30.24ZM709.602 36V9.6C709.602 6.688 710.466 4.368 712.194 2.64C713.922 0.879997 716.386 -2.86102e-06 719.586 -2.86102e-06C720.674 -2.86102e-06 721.714 0.111998 722.706 0.335999C723.73 0.559998 724.594 0.911998 725.298 1.392L723.33 6.816C722.914 6.528 722.45 6.304 721.938 6.144C721.426 5.984 720.882 5.904 720.306 5.904C719.218 5.904 718.37 6.224 717.762 6.864C717.186 7.472 716.898 8.4 716.898 9.648V12.048L717.09 15.264V36H709.602ZM705.618 16.512V10.752H723.522V16.512H705.618ZM159.824 95.384C157.616 95.384 155.488 95.128 153.44 94.616C151.424 94.072 149.824 93.4 148.64 92.6L151.136 87.224C152.32 87.96 153.712 88.568 155.312 89.048C156.944 89.496 158.544 89.72 160.112 89.72C161.84 89.72 163.056 89.512 163.76 89.096C164.496 88.68 164.864 88.104 164.864 87.368C164.864 86.76 164.576 86.312 164 86.024C163.456 85.704 162.72 85.464 161.792 85.304C160.864 85.144 159.84 84.984 158.72 84.824C157.632 84.664 156.528 84.456 155.408 84.2C154.288 83.912 153.264 83.496 152.336 82.952C151.408 82.408 150.656 81.672 150.08 80.744C149.536 79.816 149.264 78.616 149.264 77.144C149.264 75.512 149.728 74.072 150.656 72.824C151.616 71.576 152.992 70.6 154.784 69.896C156.576 69.16 158.72 68.792 161.216 68.792C162.976 68.792 164.768 68.984 166.592 69.368C168.416 69.752 169.936 70.312 171.152 71.048L168.656 76.376C167.408 75.64 166.144 75.144 164.864 74.888C163.616 74.6 162.4 74.456 161.216 74.456C159.552 74.456 158.336 74.68 157.568 75.128C156.8 75.576 156.416 76.152 156.416 76.856C156.416 77.496 156.688 77.976 157.232 78.296C157.808 78.616 158.56 78.872 159.488 79.064C160.416 79.256 161.424 79.432 162.512 79.592C163.632 79.72 164.752 79.928 165.872 80.216C166.992 80.504 168 80.92 168.896 81.464C169.824 81.976 170.576 82.696 171.152 83.624C171.728 84.52 172.016 85.704 172.016 87.176C172.016 88.776 171.536 90.2 170.576 91.448C169.616 92.664 168.224 93.624 166.4 94.328C164.608 95.032 162.416 95.384 159.824 95.384ZM188.924 95.384C186.172 95.384 183.724 94.808 181.58 93.656C179.468 92.504 177.788 90.936 176.54 88.952C175.324 86.936 174.716 84.648 174.716 82.088C174.716 79.496 175.324 77.208 176.54 75.224C177.788 73.208 179.468 71.64 181.58 70.52C183.724 69.368 186.172 68.792 188.924 68.792C191.644 68.792 194.076 69.368 196.22 70.52C198.364 71.64 200.044 73.192 201.26 75.176C202.476 77.16 203.084 79.464 203.084 82.088C203.084 84.648 202.476 86.936 201.26 88.952C200.044 90.936 198.364 92.504 196.22 93.656C194.076 94.808 191.644 95.384 188.924 95.384ZM188.924 89.24C190.172 89.24 191.292 88.952 192.284 88.376C193.276 87.8 194.06 86.984 194.636 85.928C195.212 84.84 195.5 83.56 195.5 82.088C195.5 80.584 195.212 79.304 194.636 78.248C194.06 77.192 193.276 76.376 192.284 75.8C191.292 75.224 190.172 74.936 188.924 74.936C187.676 74.936 186.556 75.224 185.564 75.8C184.572 76.376 183.772 77.192 183.164 78.248C182.588 79.304 182.3 80.584 182.3 82.088C182.3 83.56 182.588 84.84 183.164 85.928C183.772 86.984 184.572 87.8 185.564 88.376C186.556 88.952 187.676 89.24 188.924 89.24ZM218.985 95.384C216.841 95.384 214.921 94.968 213.225 94.136C211.561 93.304 210.265 92.04 209.337 90.344C208.409 88.616 207.945 86.424 207.945 83.768V69.176H215.433V82.664C215.433 84.808 215.881 86.392 216.777 87.416C217.705 88.408 219.001 88.904 220.665 88.904C221.817 88.904 222.841 88.664 223.737 88.184C224.633 87.672 225.337 86.904 225.849 85.88C226.361 84.824 226.617 83.512 226.617 81.944V69.176H234.105V95H227.001V87.896L228.297 89.96C227.433 91.752 226.153 93.112 224.457 94.04C222.793 94.936 220.969 95.384 218.985 95.384ZM256.738 68.792C258.786 68.792 260.61 69.208 262.21 70.04C263.842 70.84 265.122 72.088 266.05 73.784C266.978 75.448 267.442 77.592 267.442 80.216V95H259.954V81.368C259.954 79.288 259.49 77.752 258.562 76.76C257.666 75.768 256.386 75.272 254.722 75.272C253.538 75.272 252.466 75.528 251.506 76.04C250.578 76.52 249.842 77.272 249.298 78.296C248.786 79.32 248.53 80.632 248.53 82.232V95H241.042V69.176H248.194V76.328L246.85 74.168C247.778 72.44 249.106 71.112 250.834 70.184C252.562 69.256 254.53 68.792 256.738 68.792ZM285.505 95.384C283.073 95.384 280.881 94.84 278.929 93.752C276.977 92.632 275.425 91.08 274.273 89.096C273.153 87.112 272.593 84.776 272.593 82.088C272.593 79.368 273.153 77.016 274.273 75.032C275.425 73.048 276.977 71.512 278.929 70.424C280.881 69.336 283.073 68.792 285.505 68.792C287.681 68.792 289.585 69.272 291.217 70.232C292.849 71.192 294.113 72.648 295.009 74.6C295.905 76.552 296.353 79.048 296.353 82.088C296.353 85.096 295.921 87.592 295.057 89.576C294.193 91.528 292.945 92.984 291.313 93.944C289.713 94.904 287.777 95.384 285.505 95.384ZM286.801 89.24C288.017 89.24 289.121 88.952 290.113 88.376C291.105 87.8 291.889 86.984 292.465 85.928C293.073 84.84 293.377 83.56 293.377 82.088C293.377 80.584 293.073 79.304 292.465 78.248C291.889 77.192 291.105 76.376 290.113 75.8C289.121 75.224 288.017 74.936 286.801 74.936C285.553 74.936 284.433 75.224 283.441 75.8C282.449 76.376 281.649 77.192 281.041 78.248C280.465 79.304 280.177 80.584 280.177 82.088C280.177 83.56 280.465 84.84 281.041 85.928C281.649 86.984 282.449 87.8 283.441 88.376C284.433 88.952 285.553 89.24 286.801 89.24ZM293.569 95V89.72L293.713 82.04L293.233 74.408V59.384H300.721V95H293.569ZM337.085 95V89.96L336.605 88.856V79.832C336.605 78.232 336.109 76.984 335.117 76.088C334.157 75.192 332.669 74.744 330.653 74.744C329.277 74.744 327.917 74.968 326.573 75.416C325.261 75.832 324.141 76.408 323.213 77.144L320.525 71.912C321.933 70.92 323.629 70.152 325.613 69.608C327.597 69.064 329.613 68.792 331.661 68.792C335.597 68.792 338.653 69.72 340.829 71.576C343.005 73.432 344.093 76.328 344.093 80.264V95H337.085ZM329.213 95.384C327.197 95.384 325.469 95.048 324.029 94.376C322.589 93.672 321.485 92.728 320.717 91.544C319.949 90.36 319.565 89.032 319.565 87.56C319.565 86.024 319.933 84.68 320.669 83.528C321.437 82.376 322.637 81.48 324.269 80.84C325.901 80.168 328.029 79.832 330.653 79.832H337.517V84.2H331.469C329.709 84.2 328.493 84.488 327.821 85.064C327.181 85.64 326.861 86.36 326.861 87.224C326.861 88.184 327.229 88.952 327.965 89.528C328.733 90.072 329.773 90.344 331.085 90.344C332.333 90.344 333.453 90.056 334.445 89.48C335.437 88.872 336.157 87.992 336.605 86.84L337.757 90.296C337.213 91.96 336.221 93.224 334.781 94.088C333.341 94.952 331.485 95.384 329.213 95.384ZM366.566 68.792C368.614 68.792 370.438 69.208 372.038 70.04C373.67 70.84 374.95 72.088 375.878 73.784C376.806 75.448 377.27 77.592 377.27 80.216V95H369.782V81.368C369.782 79.288 369.318 77.752 368.39 76.76C367.494 75.768 366.214 75.272 364.55 75.272C363.366 75.272 362.294 75.528 361.334 76.04C360.406 76.52 359.67 77.272 359.126 78.296C358.614 79.32 358.358 80.632 358.358 82.232V95H350.87V69.176H358.022V76.328L356.678 74.168C357.606 72.44 358.934 71.112 360.662 70.184C362.39 69.256 364.358 68.792 366.566 68.792ZM395.333 95.384C392.901 95.384 390.709 94.84 388.757 93.752C386.805 92.632 385.253 91.08 384.101 89.096C382.981 87.112 382.421 84.776 382.421 82.088C382.421 79.368 382.981 77.016 384.101 75.032C385.253 73.048 386.805 71.512 388.757 70.424C390.709 69.336 392.901 68.792 395.333 68.792C397.509 68.792 399.413 69.272 401.045 70.232C402.677 71.192 403.941 72.648 404.837 74.6C405.733 76.552 406.181 79.048 406.181 82.088C406.181 85.096 405.749 87.592 404.885 89.576C404.021 91.528 402.773 92.984 401.141 93.944C399.541 94.904 397.605 95.384 395.333 95.384ZM396.629 89.24C397.845 89.24 398.949 88.952 399.941 88.376C400.933 87.8 401.717 86.984 402.293 85.928C402.901 84.84 403.205 83.56 403.205 82.088C403.205 80.584 402.901 79.304 402.293 78.248C401.717 77.192 400.933 76.376 399.941 75.8C398.949 75.224 397.845 74.936 396.629 74.936C395.381 74.936 394.261 75.224 393.269 75.8C392.277 76.376 391.477 77.192 390.869 78.248C390.293 79.304 390.005 80.584 390.005 82.088C390.005 83.56 390.293 84.84 390.869 85.928C391.477 86.984 392.277 87.8 393.269 88.376C394.261 88.952 395.381 89.24 396.629 89.24ZM403.397 95V89.72L403.541 82.04L403.061 74.408V59.384H410.549V95H403.397ZM438.081 95L427.233 69.176H434.961L443.985 91.4H440.145L449.505 69.176H456.705L445.809 95H438.081ZM459.761 95V69.176H467.249V95H459.761ZM463.505 65.576C462.129 65.576 461.009 65.176 460.145 64.376C459.281 63.576 458.849 62.584 458.849 61.4C458.849 60.216 459.281 59.224 460.145 58.424C461.009 57.624 462.129 57.224 463.505 57.224C464.881 57.224 466.001 57.608 466.865 58.376C467.729 59.112 468.161 60.072 468.161 61.256C468.161 62.504 467.729 63.544 466.865 64.376C466.033 65.176 464.913 65.576 463.505 65.576ZM482.886 95.384C480.678 95.384 478.55 95.128 476.502 94.616C474.486 94.072 472.886 93.4 471.702 92.6L474.198 87.224C475.382 87.96 476.774 88.568 478.374 89.048C480.006 89.496 481.606 89.72 483.174 89.72C484.902 89.72 486.118 89.512 486.822 89.096C487.558 88.68 487.926 88.104 487.926 87.368C487.926 86.76 487.638 86.312 487.062 86.024C486.518 85.704 485.782 85.464 484.854 85.304C483.926 85.144 482.902 84.984 481.782 84.824C480.694 84.664 479.59 84.456 478.47 84.2C477.35 83.912 476.326 83.496 475.398 82.952C474.47 82.408 473.718 81.672 473.142 80.744C472.598 79.816 472.326 78.616 472.326 77.144C472.326 75.512 472.79 74.072 473.718 72.824C474.678 71.576 476.054 70.6 477.846 69.896C479.638 69.16 481.782 68.792 484.278 68.792C486.038 68.792 487.83 68.984 489.654 69.368C491.478 69.752 492.998 70.312 494.214 71.048L491.718 76.376C490.47 75.64 489.206 75.144 487.926 74.888C486.678 74.6 485.462 74.456 484.278 74.456C482.614 74.456 481.398 74.68 480.63 75.128C479.862 75.576 479.478 76.152 479.478 76.856C479.478 77.496 479.75 77.976 480.294 78.296C480.87 78.616 481.622 78.872 482.55 79.064C483.478 79.256 484.486 79.432 485.574 79.592C486.694 79.72 487.814 79.928 488.934 80.216C490.054 80.504 491.062 80.92 491.958 81.464C492.886 81.976 493.638 82.696 494.214 83.624C494.79 84.52 495.078 85.704 495.078 87.176C495.078 88.776 494.598 90.2 493.638 91.448C492.678 92.664 491.286 93.624 489.462 94.328C487.67 95.032 485.478 95.384 482.886 95.384ZM499.698 95V69.176H507.186V95H499.698ZM503.442 65.576C502.066 65.576 500.946 65.176 500.082 64.376C499.218 63.576 498.786 62.584 498.786 61.4C498.786 60.216 499.218 59.224 500.082 58.424C500.946 57.624 502.066 57.224 503.442 57.224C504.818 57.224 505.938 57.608 506.802 58.376C507.666 59.112 508.098 60.072 508.098 61.256C508.098 62.504 507.666 63.544 506.802 64.376C505.97 65.176 504.85 65.576 503.442 65.576ZM526.424 95.384C523.672 95.384 521.224 94.808 519.08 93.656C516.968 92.504 515.288 90.936 514.04 88.952C512.824 86.936 512.216 84.648 512.216 82.088C512.216 79.496 512.824 77.208 514.04 75.224C515.288 73.208 516.968 71.64 519.08 70.52C521.224 69.368 523.672 68.792 526.424 68.792C529.144 68.792 531.576 69.368 533.72 70.52C535.864 71.64 537.544 73.192 538.76 75.176C539.976 77.16 540.584 79.464 540.584 82.088C540.584 84.648 539.976 86.936 538.76 88.952C537.544 90.936 535.864 92.504 533.72 93.656C531.576 94.808 529.144 95.384 526.424 95.384ZM526.424 89.24C527.672 89.24 528.792 88.952 529.784 88.376C530.776 87.8 531.56 86.984 532.136 85.928C532.712 84.84 533 83.56 533 82.088C533 80.584 532.712 79.304 532.136 78.248C531.56 77.192 530.776 76.376 529.784 75.8C528.792 75.224 527.672 74.936 526.424 74.936C525.176 74.936 524.056 75.224 523.064 75.8C522.072 76.376 521.272 77.192 520.664 78.248C520.088 79.304 519.8 80.584 519.8 82.088C519.8 83.56 520.088 84.84 520.664 85.928C521.272 86.984 522.072 87.8 523.064 88.376C524.056 88.952 525.176 89.24 526.424 89.24ZM561.285 68.792C563.333 68.792 565.157 69.208 566.757 70.04C568.389 70.84 569.669 72.088 570.597 73.784C571.525 75.448 571.989 77.592 571.989 80.216V95H564.501V81.368C564.501 79.288 564.037 77.752 563.109 76.76C562.213 75.768 560.933 75.272 559.269 75.272C558.085 75.272 557.013 75.528 556.053 76.04C555.125 76.52 554.389 77.272 553.845 78.296C553.333 79.32 553.077 80.632 553.077 82.232V95H545.589V69.176H552.741V76.328L551.397 74.168C552.325 72.44 553.653 71.112 555.381 70.184C557.109 69.256 559.077 68.792 561.285 68.792Z" fill="url(#paint0_linear_135_924)"/>
<defs>
<linearGradient id="paint0_linear_135_924" x1="361.5" y1="-11" x2="361.5" y2="95" gradientUnits="userSpaceOnUse">
<stop offset="0.125207" stop-color="#1E5CDA"/>
<stop offset="0.378106" stop-color="#9747FF"/>
<stop offset="0.77326" stop-color="#FC8D58"/>
<stop offset="1" stop-color="#FF0000"/>
</linearGradient>
</defs>
</svg>
