<svg width="657" height="98" viewBox="0 0 657 98" fill="none" xmlns="http://www.w3.org/2000/svg">
<path d="M11.6549 38V10.736H0.902938V4.4H30.1829V10.736H19.4309V38H11.6549ZM48.3663 38V32.96L47.8863 31.856V22.832C47.8863 21.232 47.3903 19.984 46.3983 19.088C45.4383 18.192 43.9503 17.744 41.9343 17.744C40.5583 17.744 39.1983 17.968 37.8543 18.416C36.5423 18.832 35.4223 19.408 34.4943 20.144L31.8063 14.912C33.2143 13.92 34.9103 13.152 36.8943 12.608C38.8783 12.064 40.8943 11.792 42.9423 11.792C46.8783 11.792 49.9343 12.72 52.1103 14.576C54.2863 16.432 55.3743 19.328 55.3743 23.264V38H48.3663ZM40.4943 38.384C38.4783 38.384 36.7503 38.048 35.3103 37.376C33.8703 36.672 32.7663 35.728 31.9983 34.544C31.2303 33.36 30.8463 32.032 30.8463 30.56C30.8463 29.024 31.2143 27.68 31.9503 26.528C32.7183 25.376 33.9183 24.48 35.5503 23.84C37.1823 23.168 39.3103 22.832 41.9343 22.832H48.7983V27.2H42.7503C40.9903 27.2 39.7743 27.488 39.1023 28.064C38.4623 28.64 38.1423 29.36 38.1423 30.224C38.1423 31.184 38.5103 31.952 39.2463 32.528C40.0143 33.072 41.0543 33.344 42.3663 33.344C43.6143 33.344 44.7343 33.056 45.7263 32.48C46.7183 31.872 47.4383 30.992 47.8863 29.84L49.0383 33.296C48.4943 34.96 47.5023 36.224 46.0623 37.088C44.6223 37.952 42.7663 38.384 40.4943 38.384ZM62.1513 38V12.176H69.6393V38H62.1513ZM65.8953 8.576C64.5193 8.576 63.3993 8.176 62.5353 7.376C61.6713 6.576 61.2393 5.584 61.2393 4.4C61.2393 3.216 61.6713 2.224 62.5353 1.424C63.3993 0.623998 64.5193 0.223997 65.8953 0.223997C67.2713 0.223997 68.3913 0.607998 69.2553 1.376C70.1193 2.112 70.5513 3.072 70.5513 4.256C70.5513 5.504 70.1193 6.544 69.2553 7.376C68.4233 8.176 67.3033 8.576 65.8953 8.576ZM76.5888 38V2.384H84.0768V38H76.5888ZM103.314 38.384C100.562 38.384 98.1143 37.808 95.9703 36.656C93.8583 35.504 92.1783 33.936 90.9303 31.952C89.7143 29.936 89.1063 27.648 89.1063 25.088C89.1063 22.496 89.7143 20.208 90.9303 18.224C92.1783 16.208 93.8583 14.64 95.9703 13.52C98.1143 12.368 100.562 11.792 103.314 11.792C106.034 11.792 108.466 12.368 110.61 13.52C112.754 14.64 114.434 16.192 115.65 18.176C116.866 20.16 117.474 22.464 117.474 25.088C117.474 27.648 116.866 29.936 115.65 31.952C114.434 33.936 112.754 35.504 110.61 36.656C108.466 37.808 106.034 38.384 103.314 38.384ZM103.314 32.24C104.562 32.24 105.682 31.952 106.674 31.376C107.666 30.8 108.45 29.984 109.026 28.928C109.602 27.84 109.89 26.56 109.89 25.088C109.89 23.584 109.602 22.304 109.026 21.248C108.45 20.192 107.666 19.376 106.674 18.8C105.682 18.224 104.562 17.936 103.314 17.936C102.066 17.936 100.946 18.224 99.9543 18.8C98.9623 19.376 98.1623 20.192 97.5543 21.248C96.9783 22.304 96.6903 23.584 96.6903 25.088C96.6903 26.56 96.9783 27.84 97.5543 28.928C98.1623 29.984 98.9623 30.8 99.9543 31.376C100.946 31.952 102.066 32.24 103.314 32.24ZM122.479 38V12.176H129.631V19.472L128.623 17.36C129.391 15.536 130.623 14.16 132.319 13.232C134.015 12.272 136.079 11.792 138.511 11.792V18.704C138.191 18.672 137.903 18.656 137.647 18.656C137.391 18.624 137.119 18.608 136.831 18.608C134.783 18.608 133.119 19.2 131.839 20.384C130.591 21.536 129.967 23.344 129.967 25.808V38H122.479ZM155.592 38.384C152.648 38.384 150.056 37.808 147.816 36.656C145.608 35.504 143.896 33.936 142.68 31.952C141.464 29.936 140.856 27.648 140.856 25.088C140.856 22.496 141.448 20.208 142.632 18.224C143.848 16.208 145.496 14.64 147.576 13.52C149.656 12.368 152.008 11.792 154.632 11.792C157.16 11.792 159.432 12.336 161.448 13.424C163.496 14.48 165.112 16.016 166.296 18.032C167.48 20.016 168.072 22.4 168.072 25.184C168.072 25.472 168.056 25.808 168.024 26.192C167.992 26.544 167.96 26.88 167.928 27.2H146.952V22.832H163.992L161.112 24.128C161.112 22.784 160.84 21.616 160.296 20.624C159.752 19.632 159 18.864 158.04 18.32C157.08 17.744 155.96 17.456 154.68 17.456C153.4 17.456 152.264 17.744 151.272 18.32C150.312 18.864 149.56 19.648 149.016 20.672C148.472 21.664 148.2 22.848 148.2 24.224V25.376C148.2 26.784 148.504 28.032 149.112 29.12C149.752 30.176 150.632 30.992 151.752 31.568C152.904 32.112 154.248 32.384 155.784 32.384C157.16 32.384 158.36 32.176 159.384 31.76C160.44 31.344 161.4 30.72 162.264 29.888L166.248 34.208C165.064 35.552 163.576 36.592 161.784 37.328C159.992 38.032 157.928 38.384 155.592 38.384ZM184.146 38.384C181.714 38.384 179.522 37.84 177.57 36.752C175.618 35.632 174.066 34.08 172.914 32.096C171.794 30.112 171.234 27.776 171.234 25.088C171.234 22.368 171.794 20.016 172.914 18.032C174.066 16.048 175.618 14.512 177.57 13.424C179.522 12.336 181.714 11.792 184.146 11.792C186.322 11.792 188.226 12.272 189.858 13.232C191.49 14.192 192.754 15.648 193.65 17.6C194.546 19.552 194.994 22.048 194.994 25.088C194.994 28.096 194.562 30.592 193.698 32.576C192.834 34.528 191.586 35.984 189.954 36.944C188.354 37.904 186.418 38.384 184.146 38.384ZM185.442 32.24C186.658 32.24 187.762 31.952 188.754 31.376C189.746 30.8 190.53 29.984 191.106 28.928C191.714 27.84 192.018 26.56 192.018 25.088C192.018 23.584 191.714 22.304 191.106 21.248C190.53 20.192 189.746 19.376 188.754 18.8C187.762 18.224 186.658 17.936 185.442 17.936C184.194 17.936 183.074 18.224 182.082 18.8C181.09 19.376 180.29 20.192 179.682 21.248C179.106 22.304 178.818 23.584 178.818 25.088C178.818 26.56 179.106 27.84 179.682 28.928C180.29 29.984 181.09 30.8 182.082 31.376C183.074 31.952 184.194 32.24 185.442 32.24ZM192.21 38V32.72L192.354 25.04L191.874 17.408V2.384H199.362V38H192.21ZM231.454 38.576C228.766 38.576 226.19 38.224 223.726 37.52C221.262 36.784 219.278 35.84 217.774 34.688L220.414 28.832C221.854 29.856 223.55 30.704 225.502 31.376C227.486 32.016 229.486 32.336 231.502 32.336C233.038 32.336 234.27 32.192 235.198 31.904C236.158 31.584 236.862 31.152 237.31 30.608C237.758 30.064 237.982 29.44 237.982 28.736C237.982 27.84 237.63 27.136 236.926 26.624C236.222 26.08 235.294 25.648 234.142 25.328C232.99 24.976 231.71 24.656 230.302 24.368C228.926 24.048 227.534 23.664 226.126 23.216C224.75 22.768 223.486 22.192 222.334 21.488C221.182 20.784 220.238 19.856 219.502 18.704C218.798 17.552 218.446 16.08 218.446 14.288C218.446 12.368 218.958 10.624 219.982 9.056C221.038 7.456 222.606 6.192 224.686 5.264C226.798 4.304 229.438 3.824 232.606 3.824C234.718 3.824 236.798 4.08 238.846 4.592C240.894 5.072 242.702 5.808 244.27 6.8L241.87 12.704C240.302 11.808 238.734 11.152 237.166 10.736C235.598 10.288 234.062 10.064 232.558 10.064C231.054 10.064 229.822 10.24 228.862 10.592C227.902 10.944 227.214 11.408 226.798 11.984C226.382 12.528 226.174 13.168 226.174 13.904C226.174 14.768 226.526 15.472 227.23 16.016C227.934 16.528 228.862 16.944 230.014 17.264C231.166 17.584 232.43 17.904 233.806 18.224C235.214 18.544 236.606 18.912 237.982 19.328C239.39 19.744 240.67 20.304 241.822 21.008C242.974 21.712 243.902 22.64 244.606 23.792C245.342 24.944 245.71 26.4 245.71 28.16C245.71 30.048 245.182 31.776 244.126 33.344C243.07 34.912 241.486 36.176 239.374 37.136C237.294 38.096 234.654 38.576 231.454 38.576ZM262.783 38.384C260.031 38.384 257.583 37.808 255.439 36.656C253.327 35.504 251.647 33.936 250.399 31.952C249.183 29.936 248.575 27.648 248.575 25.088C248.575 22.496 249.183 20.208 250.399 18.224C251.647 16.208 253.327 14.64 255.439 13.52C257.583 12.368 260.031 11.792 262.783 11.792C265.503 11.792 267.935 12.368 270.079 13.52C272.223 14.64 273.903 16.192 275.119 18.176C276.335 20.16 276.943 22.464 276.943 25.088C276.943 27.648 276.335 29.936 275.119 31.952C273.903 33.936 272.223 35.504 270.079 36.656C267.935 37.808 265.503 38.384 262.783 38.384ZM262.783 32.24C264.031 32.24 265.151 31.952 266.143 31.376C267.135 30.8 267.919 29.984 268.495 28.928C269.071 27.84 269.359 26.56 269.359 25.088C269.359 23.584 269.071 22.304 268.495 21.248C267.919 20.192 267.135 19.376 266.143 18.8C265.151 18.224 264.031 17.936 262.783 17.936C261.535 17.936 260.415 18.224 259.423 18.8C258.431 19.376 257.631 20.192 257.023 21.248C256.447 22.304 256.159 23.584 256.159 25.088C256.159 26.56 256.447 27.84 257.023 28.928C257.631 29.984 258.431 30.8 259.423 31.376C260.415 31.952 261.535 32.24 262.783 32.24ZM281.948 38V2.384H289.436V38H281.948ZM307.282 38.384C305.138 38.384 303.218 37.968 301.522 37.136C299.858 36.304 298.562 35.04 297.634 33.344C296.706 31.616 296.242 29.424 296.242 26.768V12.176H303.73V25.664C303.73 27.808 304.178 29.392 305.074 30.416C306.002 31.408 307.298 31.904 308.962 31.904C310.114 31.904 311.138 31.664 312.034 31.184C312.93 30.672 313.634 29.904 314.146 28.88C314.658 27.824 314.914 26.512 314.914 24.944V12.176H322.402V38H315.298V30.896L316.594 32.96C315.73 34.752 314.45 36.112 312.754 37.04C311.09 37.936 309.266 38.384 307.282 38.384ZM339.899 38.384C336.859 38.384 334.491 37.616 332.795 36.08C331.099 34.512 330.251 32.192 330.251 29.12V6.464H337.739V29.024C337.739 30.112 338.027 30.96 338.603 31.568C339.179 32.144 339.963 32.432 340.955 32.432C342.139 32.432 343.147 32.112 343.979 31.472L345.995 36.752C345.227 37.296 344.299 37.712 343.211 38C342.155 38.256 341.051 38.384 339.899 38.384ZM326.267 18.512V12.752H344.171V18.512H326.267ZM350.198 38V12.176H357.686V38H350.198ZM353.942 8.576C352.566 8.576 351.446 8.176 350.582 7.376C349.718 6.576 349.286 5.584 349.286 4.4C349.286 3.216 349.718 2.224 350.582 1.424C351.446 0.623998 352.566 0.223997 353.942 0.223997C355.318 0.223997 356.438 0.607998 357.302 1.376C358.166 2.112 358.598 3.072 358.598 4.256C358.598 5.504 358.166 6.544 357.302 7.376C356.47 8.176 355.35 8.576 353.942 8.576ZM376.924 38.384C374.172 38.384 371.724 37.808 369.58 36.656C367.468 35.504 365.788 33.936 364.54 31.952C363.324 29.936 362.716 27.648 362.716 25.088C362.716 22.496 363.324 20.208 364.54 18.224C365.788 16.208 367.468 14.64 369.58 13.52C371.724 12.368 374.172 11.792 376.924 11.792C379.644 11.792 382.076 12.368 384.22 13.52C386.364 14.64 388.044 16.192 389.26 18.176C390.476 20.16 391.084 22.464 391.084 25.088C391.084 27.648 390.476 29.936 389.26 31.952C388.044 33.936 386.364 35.504 384.22 36.656C382.076 37.808 379.644 38.384 376.924 38.384ZM376.924 32.24C378.172 32.24 379.292 31.952 380.284 31.376C381.276 30.8 382.06 29.984 382.636 28.928C383.212 27.84 383.5 26.56 383.5 25.088C383.5 23.584 383.212 22.304 382.636 21.248C382.06 20.192 381.276 19.376 380.284 18.8C379.292 18.224 378.172 17.936 376.924 17.936C375.676 17.936 374.556 18.224 373.564 18.8C372.572 19.376 371.772 20.192 371.164 21.248C370.588 22.304 370.3 23.584 370.3 25.088C370.3 26.56 370.588 27.84 371.164 28.928C371.772 29.984 372.572 30.8 373.564 31.376C374.556 31.952 375.676 32.24 376.924 32.24ZM411.785 11.792C413.833 11.792 415.657 12.208 417.257 13.04C418.889 13.84 420.169 15.088 421.097 16.784C422.025 18.448 422.489 20.592 422.489 23.216V38H415.001V24.368C415.001 22.288 414.537 20.752 413.609 19.76C412.713 18.768 411.433 18.272 409.769 18.272C408.585 18.272 407.513 18.528 406.553 19.04C405.625 19.52 404.889 20.272 404.345 21.296C403.833 22.32 403.577 23.632 403.577 25.232V38H396.089V12.176H403.241V19.328L401.897 17.168C402.825 15.44 404.153 14.112 405.881 13.184C407.609 12.256 409.577 11.792 411.785 11.792ZM437.964 38.384C435.756 38.384 433.628 38.128 431.58 37.616C429.564 37.072 427.964 36.4 426.78 35.6L429.276 30.224C430.46 30.96 431.852 31.568 433.452 32.048C435.084 32.496 436.684 32.72 438.252 32.72C439.98 32.72 441.196 32.512 441.9 32.096C442.636 31.68 443.004 31.104 443.004 30.368C443.004 29.76 442.716 29.312 442.14 29.024C441.596 28.704 440.86 28.464 439.932 28.304C439.004 28.144 437.98 27.984 436.86 27.824C435.772 27.664 434.668 27.456 433.548 27.2C432.428 26.912 431.404 26.496 430.476 25.952C429.548 25.408 428.796 24.672 428.22 23.744C427.676 22.816 427.404 21.616 427.404 20.144C427.404 18.512 427.868 17.072 428.796 15.824C429.756 14.576 431.132 13.6 432.924 12.896C434.716 12.16 436.86 11.792 439.356 11.792C441.116 11.792 442.908 11.984 444.732 12.368C446.556 12.752 448.076 13.312 449.292 14.048L446.796 19.376C445.548 18.64 444.284 18.144 443.004 17.888C441.756 17.6 440.54 17.456 439.356 17.456C437.692 17.456 436.476 17.68 435.708 18.128C434.94 18.576 434.556 19.152 434.556 19.856C434.556 20.496 434.828 20.976 435.372 21.296C435.948 21.616 436.7 21.872 437.628 22.064C438.556 22.256 439.564 22.432 440.652 22.592C441.772 22.72 442.892 22.928 444.012 23.216C445.132 23.504 446.14 23.92 447.036 24.464C447.964 24.976 448.716 25.696 449.292 26.624C449.868 27.52 450.156 28.704 450.156 30.176C450.156 31.776 449.676 33.2 448.716 34.448C447.756 35.664 446.364 36.624 444.54 37.328C442.748 38.032 440.556 38.384 437.964 38.384ZM478.93 38.384C475.89 38.384 473.522 37.616 471.826 36.08C470.13 34.512 469.282 32.192 469.282 29.12V6.464H476.77V29.024C476.77 30.112 477.058 30.96 477.634 31.568C478.21 32.144 478.994 32.432 479.986 32.432C481.17 32.432 482.178 32.112 483.01 31.472L485.026 36.752C484.258 37.296 483.33 37.712 482.242 38C481.186 38.256 480.082 38.384 478.93 38.384ZM465.298 18.512V12.752H483.202V18.512H465.298ZM500.721 38.384C497.969 38.384 495.521 37.808 493.377 36.656C491.265 35.504 489.585 33.936 488.337 31.952C487.121 29.936 486.513 27.648 486.513 25.088C486.513 22.496 487.121 20.208 488.337 18.224C489.585 16.208 491.265 14.64 493.377 13.52C495.521 12.368 497.969 11.792 500.721 11.792C503.441 11.792 505.873 12.368 508.017 13.52C510.161 14.64 511.841 16.192 513.057 18.176C514.273 20.16 514.881 22.464 514.881 25.088C514.881 27.648 514.273 29.936 513.057 31.952C511.841 33.936 510.161 35.504 508.017 36.656C505.873 37.808 503.441 38.384 500.721 38.384ZM500.721 32.24C501.969 32.24 503.089 31.952 504.081 31.376C505.073 30.8 505.857 29.984 506.433 28.928C507.009 27.84 507.297 26.56 507.297 25.088C507.297 23.584 507.009 22.304 506.433 21.248C505.857 20.192 505.073 19.376 504.081 18.8C503.089 18.224 501.969 17.936 500.721 17.936C499.473 17.936 498.353 18.224 497.361 18.8C496.369 19.376 495.569 20.192 494.961 21.248C494.385 22.304 494.097 23.584 494.097 25.088C494.097 26.56 494.385 27.84 494.961 28.928C495.569 29.984 496.369 30.8 497.361 31.376C498.353 31.952 499.473 32.24 500.721 32.24ZM534.007 38V4.4H540.439L554.743 28.112H551.335L565.399 4.4H571.783L571.879 38H564.583L564.535 15.584H565.879L554.647 34.448H551.143L539.671 15.584H541.303V38H534.007ZM592.139 38.384C589.195 38.384 586.603 37.808 584.363 36.656C582.155 35.504 580.443 33.936 579.227 31.952C578.011 29.936 577.403 27.648 577.403 25.088C577.403 22.496 577.995 20.208 579.179 18.224C580.395 16.208 582.043 14.64 584.123 13.52C586.203 12.368 588.555 11.792 591.179 11.792C593.707 11.792 595.979 12.336 597.995 13.424C600.043 14.48 601.659 16.016 602.843 18.032C604.027 20.016 604.619 22.4 604.619 25.184C604.619 25.472 604.603 25.808 604.571 26.192C604.539 26.544 604.507 26.88 604.475 27.2H583.499V22.832H600.539L597.659 24.128C597.659 22.784 597.387 21.616 596.843 20.624C596.299 19.632 595.547 18.864 594.587 18.32C593.627 17.744 592.507 17.456 591.227 17.456C589.947 17.456 588.811 17.744 587.819 18.32C586.859 18.864 586.107 19.648 585.563 20.672C585.019 21.664 584.747 22.848 584.747 24.224V25.376C584.747 26.784 585.051 28.032 585.659 29.12C586.299 30.176 587.179 30.992 588.299 31.568C589.451 32.112 590.795 32.384 592.331 32.384C593.707 32.384 594.907 32.176 595.931 31.76C596.987 31.344 597.947 30.72 598.811 29.888L602.795 34.208C601.611 35.552 600.123 36.592 598.331 37.328C596.539 38.032 594.475 38.384 592.139 38.384ZM622.42 38.384C619.476 38.384 616.884 37.808 614.644 36.656C612.436 35.504 610.724 33.936 609.508 31.952C608.292 29.936 607.684 27.648 607.684 25.088C607.684 22.496 608.276 20.208 609.46 18.224C610.676 16.208 612.324 14.64 614.404 13.52C616.484 12.368 618.836 11.792 621.46 11.792C623.988 11.792 626.26 12.336 628.276 13.424C630.324 14.48 631.94 16.016 633.124 18.032C634.308 20.016 634.9 22.4 634.9 25.184C634.9 25.472 634.884 25.808 634.852 26.192C634.82 26.544 634.788 26.88 634.756 27.2H613.78V22.832H630.82L627.94 24.128C627.94 22.784 627.668 21.616 627.124 20.624C626.58 19.632 625.828 18.864 624.868 18.32C623.908 17.744 622.788 17.456 621.508 17.456C620.228 17.456 619.092 17.744 618.1 18.32C617.14 18.864 616.388 19.648 615.844 20.672C615.3 21.664 615.028 22.848 615.028 24.224V25.376C615.028 26.784 615.332 28.032 615.94 29.12C616.58 30.176 617.46 30.992 618.58 31.568C619.732 32.112 621.076 32.384 622.612 32.384C623.988 32.384 625.188 32.176 626.212 31.76C627.268 31.344 628.228 30.72 629.092 29.888L633.076 34.208C631.892 35.552 630.404 36.592 628.612 37.328C626.82 38.032 624.756 38.384 622.42 38.384ZM650.446 38.384C647.406 38.384 645.038 37.616 643.342 36.08C641.646 34.512 640.798 32.192 640.798 29.12V6.464H648.286V29.024C648.286 30.112 648.574 30.96 649.15 31.568C649.726 32.144 650.51 32.432 651.502 32.432C652.686 32.432 653.694 32.112 654.526 31.472L656.542 36.752C655.774 37.296 654.846 37.712 653.758 38C652.702 38.256 651.598 38.384 650.446 38.384ZM636.814 18.512V12.752H654.718V18.512H636.814ZM198.18 97V83.272L199.956 87.976L185.172 63.4H193.428L204.756 82.264H200.004L211.38 63.4H219.012L204.228 87.976L205.956 83.272V97H198.18ZM231.166 97.384C228.414 97.384 225.966 96.808 223.822 95.656C221.71 94.504 220.03 92.936 218.782 90.952C217.566 88.936 216.958 86.648 216.958 84.088C216.958 81.496 217.566 79.208 218.782 77.224C220.03 75.208 221.71 73.64 223.822 72.52C225.966 71.368 228.414 70.792 231.166 70.792C233.886 70.792 236.318 71.368 238.462 72.52C240.606 73.64 242.286 75.192 243.502 77.176C244.718 79.16 245.326 81.464 245.326 84.088C245.326 86.648 244.718 88.936 243.502 90.952C242.286 92.936 240.606 94.504 238.462 95.656C236.318 96.808 233.886 97.384 231.166 97.384ZM231.166 91.24C232.414 91.24 233.534 90.952 234.526 90.376C235.518 89.8 236.302 88.984 236.878 87.928C237.454 86.84 237.742 85.56 237.742 84.088C237.742 82.584 237.454 81.304 236.878 80.248C236.302 79.192 235.518 78.376 234.526 77.8C233.534 77.224 232.414 76.936 231.166 76.936C229.918 76.936 228.798 77.224 227.806 77.8C226.814 78.376 226.014 79.192 225.406 80.248C224.83 81.304 224.542 82.584 224.542 84.088C224.542 85.56 224.83 86.84 225.406 87.928C226.014 88.984 226.814 89.8 227.806 90.376C228.798 90.952 229.918 91.24 231.166 91.24ZM261.227 97.384C259.083 97.384 257.163 96.968 255.467 96.136C253.803 95.304 252.507 94.04 251.579 92.344C250.651 90.616 250.187 88.424 250.187 85.768V71.176H257.675V84.664C257.675 86.808 258.123 88.392 259.019 89.416C259.947 90.408 261.243 90.904 262.907 90.904C264.059 90.904 265.083 90.664 265.979 90.184C266.875 89.672 267.579 88.904 268.091 87.88C268.603 86.824 268.859 85.512 268.859 83.944V71.176H276.347V97H269.243V89.896L270.539 91.96C269.675 93.752 268.395 95.112 266.699 96.04C265.035 96.936 263.211 97.384 261.227 97.384ZM283.284 97V71.176H290.436V78.472L289.428 76.36C290.196 74.536 291.428 73.16 293.124 72.232C294.82 71.272 296.884 70.792 299.316 70.792V77.704C298.996 77.672 298.708 77.656 298.452 77.656C298.196 77.624 297.924 77.608 297.636 77.608C295.588 77.608 293.924 78.2 292.644 79.384C291.396 80.536 290.772 82.344 290.772 84.808V97H283.284ZM318.078 97V63.4H324.51L344.334 87.592H341.214V63.4H348.894V97H342.51L322.638 72.808H325.758V97H318.078ZM369.131 97.384C366.187 97.384 363.595 96.808 361.355 95.656C359.147 94.504 357.435 92.936 356.219 90.952C355.003 88.936 354.395 86.648 354.395 84.088C354.395 81.496 354.987 79.208 356.171 77.224C357.387 75.208 359.035 73.64 361.115 72.52C363.195 71.368 365.547 70.792 368.171 70.792C370.699 70.792 372.971 71.336 374.987 72.424C377.035 73.48 378.651 75.016 379.835 77.032C381.019 79.016 381.611 81.4 381.611 84.184C381.611 84.472 381.595 84.808 381.563 85.192C381.531 85.544 381.499 85.88 381.467 86.2H360.491V81.832H377.531L374.651 83.128C374.651 81.784 374.379 80.616 373.835 79.624C373.291 78.632 372.539 77.864 371.579 77.32C370.619 76.744 369.499 76.456 368.219 76.456C366.939 76.456 365.803 76.744 364.811 77.32C363.851 77.864 363.099 78.648 362.555 79.672C362.011 80.664 361.739 81.848 361.739 83.224V84.376C361.739 85.784 362.043 87.032 362.651 88.12C363.291 89.176 364.171 89.992 365.291 90.568C366.443 91.112 367.787 91.384 369.323 91.384C370.699 91.384 371.899 91.176 372.923 90.76C373.979 90.344 374.939 89.72 375.803 88.888L379.787 93.208C378.603 94.552 377.115 95.592 375.323 96.328C373.531 97.032 371.467 97.384 369.131 97.384ZM399.413 97.384C396.469 97.384 393.877 96.808 391.637 95.656C389.429 94.504 387.717 92.936 386.501 90.952C385.285 88.936 384.677 86.648 384.677 84.088C384.677 81.496 385.269 79.208 386.453 77.224C387.669 75.208 389.317 73.64 391.397 72.52C393.477 71.368 395.829 70.792 398.453 70.792C400.981 70.792 403.253 71.336 405.269 72.424C407.317 73.48 408.933 75.016 410.117 77.032C411.301 79.016 411.893 81.4 411.893 84.184C411.893 84.472 411.877 84.808 411.845 85.192C411.813 85.544 411.781 85.88 411.749 86.2H390.773V81.832H407.813L404.933 83.128C404.933 81.784 404.661 80.616 404.117 79.624C403.573 78.632 402.821 77.864 401.861 77.32C400.901 76.744 399.781 76.456 398.501 76.456C397.221 76.456 396.085 76.744 395.093 77.32C394.133 77.864 393.381 78.648 392.837 79.672C392.293 80.664 392.021 81.848 392.021 83.224V84.376C392.021 85.784 392.325 87.032 392.933 88.12C393.573 89.176 394.453 89.992 395.573 90.568C396.725 91.112 398.069 91.384 399.605 91.384C400.981 91.384 402.181 91.176 403.205 90.76C404.261 90.344 405.221 89.72 406.085 88.888L410.069 93.208C408.885 94.552 407.397 95.592 405.605 96.328C403.813 97.032 401.749 97.384 399.413 97.384ZM427.966 97.384C425.534 97.384 423.342 96.84 421.39 95.752C419.438 94.632 417.886 93.08 416.734 91.096C415.614 89.112 415.054 86.776 415.054 84.088C415.054 81.368 415.614 79.016 416.734 77.032C417.886 75.048 419.438 73.512 421.39 72.424C423.342 71.336 425.534 70.792 427.966 70.792C430.142 70.792 432.046 71.272 433.678 72.232C435.31 73.192 436.574 74.648 437.47 76.6C438.366 78.552 438.814 81.048 438.814 84.088C438.814 87.096 438.382 89.592 437.518 91.576C436.654 93.528 435.406 94.984 433.774 95.944C432.174 96.904 430.238 97.384 427.966 97.384ZM429.262 91.24C430.478 91.24 431.582 90.952 432.574 90.376C433.566 89.8 434.35 88.984 434.926 87.928C435.534 86.84 435.838 85.56 435.838 84.088C435.838 82.584 435.534 81.304 434.926 80.248C434.35 79.192 433.566 78.376 432.574 77.8C431.582 77.224 430.478 76.936 429.262 76.936C428.014 76.936 426.894 77.224 425.902 77.8C424.91 78.376 424.11 79.192 423.502 80.248C422.926 81.304 422.638 82.584 422.638 84.088C422.638 85.56 422.926 86.84 423.502 87.928C424.11 88.984 424.91 89.8 425.902 90.376C426.894 90.952 428.014 91.24 429.262 91.24ZM436.03 97V91.72L436.174 84.04L435.694 76.408V61.384H443.182V97H436.03ZM458.8 97.384C456.592 97.384 454.464 97.128 452.416 96.616C450.4 96.072 448.8 95.4 447.616 94.6L450.112 89.224C451.296 89.96 452.688 90.568 454.288 91.048C455.92 91.496 457.52 91.72 459.088 91.72C460.816 91.72 462.032 91.512 462.736 91.096C463.472 90.68 463.84 90.104 463.84 89.368C463.84 88.76 463.552 88.312 462.976 88.024C462.432 87.704 461.696 87.464 460.768 87.304C459.84 87.144 458.816 86.984 457.696 86.824C456.608 86.664 455.504 86.456 454.384 86.2C453.264 85.912 452.24 85.496 451.312 84.952C450.384 84.408 449.632 83.672 449.056 82.744C448.512 81.816 448.24 80.616 448.24 79.144C448.24 77.512 448.704 76.072 449.632 74.824C450.592 73.576 451.968 72.6 453.76 71.896C455.552 71.16 457.696 70.792 460.192 70.792C461.952 70.792 463.744 70.984 465.568 71.368C467.392 71.752 468.912 72.312 470.128 73.048L467.632 78.376C466.384 77.64 465.12 77.144 463.84 76.888C462.592 76.6 461.376 76.456 460.192 76.456C458.528 76.456 457.312 76.68 456.544 77.128C455.776 77.576 455.392 78.152 455.392 78.856C455.392 79.496 455.664 79.976 456.208 80.296C456.784 80.616 457.536 80.872 458.464 81.064C459.392 81.256 460.4 81.432 461.488 81.592C462.608 81.72 463.728 81.928 464.848 82.216C465.968 82.504 466.976 82.92 467.872 83.464C468.8 83.976 469.552 84.696 470.128 85.624C470.704 86.52 470.992 87.704 470.992 89.176C470.992 90.776 470.512 92.2 469.552 93.448C468.592 94.664 467.2 95.624 465.376 96.328C463.584 97.032 461.392 97.384 458.8 97.384Z" fill="url(#paint0_linear_135_1128)"/>
<defs>
<linearGradient id="paint0_linear_135_1128" x1="329" y1="-9" x2="329" y2="97" gradientUnits="userSpaceOnUse">
<stop offset="0.125207" stop-color="#1E5CDA"/>
<stop offset="0.378106" stop-color="#9747FF"/>
<stop offset="0.77326" stop-color="#FC8D58"/>
<stop offset="1" stop-color="#FF0000"/>
</linearGradient>
</defs>
</svg>
